<?xml version="1.0" encoding="UTF-8"?>
<!DOCTYPE svg PUBLIC "-//W3C//DTD SVG 1.1//EN" "http://www.w3.org/Graphics/SVG/1.1/DTD/svg11.dtd">
<svg version="1.1" xmlns="http://www.w3.org/2000/svg" xmlns:xlink="http://www.w3.org/1999/xlink" x="0" y="0" width="789.021" height="871.105" viewBox="0, 0, 789.021, 871.105">
  <g id="Layer_1">
    <path d="M683.468,870.772 C678.171,870.167 675.418,868.953 664.132,862.242 C656.894,857.939 650.341,853.453 649.568,852.275 C647.599,849.269 646.352,841.87 645.547,828.413 C644.724,814.634 645.48,815.642 627.644,804.55 C589.523,780.846 533.533,752.889 405.735,693.75 C388.278,685.671 387.736,685.495 384.235,686.758 C382.26,687.471 369.394,693.436 355.644,700.015 C341.894,706.593 317.594,718.163 301.644,725.727 C253.621,748.499 200.147,775.623 191.644,781.523 C174.001,793.764 159.642,805.478 157.517,809.362 C154.822,814.289 152.602,821.209 150.657,830.749 C148.867,839.525 142.963,852.24 139.922,853.868 C138.755,854.492 136.76,856.24 135.488,857.751 C132.375,861.451 124.016,865.266 112.318,868.325 C101.238,871.224 96.72,871.056 81.328,867.178 C71.676,864.746 65.818,861.877 64.153,858.767 C62.895,856.417 61.245,841.678 60.353,824.839 L59.644,811.429 L52.644,809.063 C48.794,807.762 39.119,805.087 31.144,803.118 C15.488,799.253 12.174,797.942 7.804,793.885 C3.955,790.312 2.185,786.646 1.105,780.015 C0.244,774.719 0.396,774.005 4.062,766.182 C12.76,747.622 24.392,733.791 38.133,725.674 C45.29,721.445 45.954,721.254 53.133,721.364 C59.154,721.456 62.627,722.216 70.644,725.195 C98.59,735.579 103.433,737.017 112.112,737.505 C125.951,738.282 143.359,733.388 175.685,719.63 C193.984,711.842 213.595,702.019 253.644,680.58 C270.694,671.453 290.2,661.061 296.99,657.486 L309.337,650.986 L299.99,645.706 C282.325,635.727 203.628,593.473 185.644,584.31 C166.258,574.434 160.625,572.644 142.644,570.644 C125.459,568.733 117.229,569.76 73.644,579.251 C66.489,580.81 57.997,581.934 52.612,582.036 C43.912,582.202 43.261,582.055 34.906,578.046 C23.624,572.632 15.861,567.287 9.519,560.565 C-0.451,549.999 -1.502,545.517 1.435,526.116 L3.595,511.847 L17.119,505.391 C24.558,501.841 36.647,496.756 43.985,494.092 L57.326,489.249 L56.485,473.249 C56.022,464.449 55.773,452.749 55.93,447.249 C56.255,435.93 56.452,435.604 65.644,431.225 C81.524,423.661 115.206,421.702 128.475,427.572 C132.428,429.32 133.296,430.408 137.893,439.373 C143.646,450.594 149.047,465.504 151.614,477.249 C155.138,493.381 160.567,500.269 176.737,509.129 C192.848,517.957 249.962,548.125 288.325,568.071 C309.049,578.846 329.974,589.87 334.825,592.569 C339.675,595.268 352.057,602.047 362.339,607.634 L381.035,617.791 L452.339,584.658 C554.738,537.076 568.035,530.803 593.446,518.094 C633.803,497.908 647.448,489.659 649.803,484.021 C651.183,480.719 659.257,448.284 662.602,432.605 L664.233,424.961 L678.938,420.869 C699.606,415.119 703.596,414.412 711.606,415.079 C721.181,415.877 725.628,417.483 729.994,421.72 C733.363,424.989 734.106,426.801 738.34,442.064 L742.988,458.82 L739.566,468.981 C737.684,474.57 736.156,479.616 736.171,480.196 C736.185,480.775 739.223,482.563 742.921,484.17 C760.294,491.716 776.117,501.969 781.182,508.96 C786.696,516.572 784.465,527.523 774.568,541.422 C768.618,549.777 757.602,560.81 751.833,564.191 L747.552,566.7 L737.461,563.308 C726.01,559.459 713.088,556.638 695.644,554.179 L683.644,552.487 L654.644,565.008 C618.716,580.521 565.417,604.182 511.644,628.492 C489.094,638.687 468.687,647.906 466.295,648.979 L461.946,650.93 L474.795,656.916 C499.235,668.301 574.752,701.587 602.644,713.268 C654.708,735.074 663.058,738.207 669.144,738.219 C674.816,738.231 676.656,737.533 705.644,724.38 C717.018,719.219 729.874,715.283 739.834,713.911 C746.341,713.014 746.799,713.09 750.144,715.6 C756.166,720.12 769.516,734.012 774.337,740.773 C785.354,756.225 789.498,768.567 788.978,784.38 C788.661,794.043 788.484,794.768 785.552,798.409 C781.109,803.926 776.224,806.845 762.644,812.1 C748.591,817.537 744.42,819.893 743.21,823.076 C742.723,824.355 741.598,830.093 740.709,835.826 C737.147,858.793 735.539,861.961 725.554,865.697 C715.266,869.546 694.584,872.04 683.468,870.772 z M111.936,848.779 C122.109,843.357 125.675,839.677 128.207,831.988 C134.999,811.361 149.26,792.244 168.344,778.184 C175.071,773.228 240.449,740.137 288.644,717.295 C307.344,708.432 325.794,695.961 342.834,689.586 C359.874,683.211 365.056,679.752 373.608,675.677 C472.251,628.927 651.336,549.365 680.644,539.27 C690.381,535.916 693.992,536.105 718.71,541.263 C728.023,543.206 739.244,545.055 743.644,545.37 L751.644,545.943 L753.732,542.096 C754.881,539.98 757.657,534.874 759.901,530.749 C763.854,523.482 763.939,523.129 762.641,519.386 C760.567,513.406 756.63,510.121 744.355,504.13 C732.103,498.15 732.624,498.169 727.441,503.489 C725.577,505.402 724.196,505.747 718.441,505.734 C710.632,505.716 709.69,505.305 708.123,501.229 C706.313,496.519 706.819,489.705 709.499,482.707 C710.86,479.155 713.617,472.027 715.628,466.867 C720.43,454.538 721.335,445.47 718.162,441.474 C715.53,438.159 711.237,436.225 704.432,435.289 C689.464,433.23 680.738,442.65 672.703,469.541 C663.595,500.024 652.04,522.382 637.905,536.869 C627.237,547.803 628.305,547.234 560.677,577.971 C554.646,580.712 546.145,583.857 541.785,584.959 C537.426,586.061 530.674,588.49 526.78,590.356 C519.147,594.014 513.198,594.724 511.124,592.225 C510.428,591.387 510.035,590.537 510.251,590.336 C512.046,588.668 546.825,570.928 580.144,554.683 C613.659,538.343 621.6,534.074 626.187,529.931 C632.041,524.644 641.034,512.749 639.177,512.749 C637.495,512.749 599.663,529.182 570.144,542.735 C555.569,549.426 516.419,568.321 483.144,584.724 C449.869,601.126 406.669,621.838 387.144,630.75 C367.619,639.662 305.252,670.014 248.55,698.199 C166.664,738.903 145.34,749.89 144.89,751.61 C144.096,754.648 138.11,756.876 129.161,757.466 C122.827,757.883 118.773,757.315 103.402,753.855 C93.368,751.597 84.082,749.749 82.766,749.749 C81.45,749.749 74.416,747.914 67.135,745.672 C59.473,743.312 52.941,741.834 51.626,742.164 C46.73,743.393 25.233,765.857 19.763,775.461 C18.673,777.374 25.04,780.083 52.278,789.295 C81.566,799.2 94.509,805.373 102.522,813.259 C108.93,819.565 110.039,822.102 107.579,824.821 C104.712,827.988 99.553,827.352 95.04,823.275 C90.376,819.061 87.305,818.185 81.296,819.357 C75.798,820.429 75.387,821.419 75.243,833.931 C75.13,843.825 74.884,843.486 86.644,849.677 C91.998,852.496 93.353,852.794 99.231,852.438 C104.241,852.135 107.285,851.258 111.936,848.779 z M110.144,813.311 C110.144,811.821 111.287,807.195 112.685,803.03 C117.208,789.559 117.575,786.468 115.24,781.554 C114.114,779.186 112.631,776.475 111.943,775.53 C110.879,774.066 111.172,773.315 113.91,770.49 C116.686,767.627 118.367,766.936 126.125,765.469 C149.935,760.968 175.086,750.48 214.144,728.764 C253.661,706.794 273.451,697.11 326.644,673.715 C380.576,649.995 391.972,645.736 397.68,647.169 C399.508,647.628 401.944,650.644 400.917,651.177 C400.767,651.256 395.469,653.502 389.144,656.169 C373.245,662.874 348.187,675.799 330.633,685.329 C313.079,694.858 293.367,702.784 278.644,709.292 C242.492,725.272 175.192,758.915 160.144,768.53 C148.827,775.76 137.436,789.259 129.731,804.57 C125.709,812.562 123.425,814.201 114.623,815.407 C110.268,816.004 110.144,815.946 110.144,813.311 z M708.501,849.333 C713.922,847.464 718.741,845.551 719.211,845.082 C720.23,844.063 722.536,816.808 721.675,815.948 C720.314,814.586 713.975,815.484 711.4,817.403 C709.884,818.533 707.027,822.248 705.051,825.66 C700.011,834.361 698.953,835.301 696.832,832.957 C694.922,830.847 693.588,823.098 694.506,819.443 C694.843,818.097 696.938,814.803 699.16,812.122 C701.382,809.442 703.549,805.915 703.976,804.284 L704.753,801.32 L731.698,794.685 C746.518,791.036 760.427,787.29 762.607,786.361 C769.711,783.335 770.144,782.525 770.144,772.251 L770.144,763.063 L765.291,756.156 C759.648,748.124 748.795,737.632 743.151,734.753 C740.991,733.651 737.879,732.749 736.235,732.749 C730.716,732.749 717.721,737.637 708.144,743.316 C695.074,751.065 684.182,756.459 678.938,757.779 C674.762,758.831 673.869,758.626 662.086,753.916 C620.909,737.456 514.353,689.015 468.675,665.991 L449.162,656.155 L438.403,661.754 C432.485,664.833 422.765,669.977 416.803,673.185 L405.962,679.018 L413.803,682.474 C426.366,688.011 537.177,738.305 555.971,748.025 C574.764,757.745 590.756,765.892 610.762,776.845 C629.947,787.348 646.544,796.403 647.644,796.968 C648.818,797.57 648.141,796.395 646.003,794.122 C644.001,791.992 639.172,786.241 612.523,769.804 C585.874,753.367 575.007,749.66 568.388,746.205 C561.77,742.749 555.146,739.31 555.187,738.307 C555.211,737.725 557.388,734.841 560.025,731.898 L564.82,726.547 L574.732,729.231 C588.036,732.833 589.399,733.487 615.218,748.661 C630.959,757.912 638.985,763.258 642.144,766.597 C647.336,772.086 655.7,784.338 663.028,797.193 C668.088,806.068 668.113,806.153 666.202,808.193 C661.229,813.504 661.006,819.482 665.368,830.595 C668.573,838.761 668.835,839.09 677.52,845.845 C686.297,852.671 686.466,852.749 692.52,852.74 C696.865,852.734 701.507,851.744 708.501,849.333 z M345.226,634.208 C352.696,630.665 360.233,627.481 361.976,627.133 C363.718,626.784 365.121,626.218 365.092,625.874 C365.064,625.53 356.627,621.112 346.342,616.055 C336.058,610.997 309.036,597.4 286.294,585.839 C247.669,566.203 244.987,564.997 245.599,567.533 C247.838,576.811 262.169,586.94 286.946,596.755 C294.829,599.878 301.144,604.272 301.144,606.635 C301.144,607.23 299.906,609.083 298.394,610.751 L295.644,613.785 L278.944,608.596 C263.421,603.773 262.222,603.228 261.944,600.87 C261.708,598.873 260.685,597.986 257.144,596.709 C254.669,595.817 249.944,593.176 246.644,590.841 C243.344,588.506 239.234,586 237.51,585.272 C233.626,583.632 228.646,576.51 227.853,571.464 C226.773,564.591 222.414,556.799 216.406,550.998 C211.342,546.108 206.284,543.242 174.659,527.342 L138.675,509.249 L136.465,504.705 C135.25,502.206 132.244,492.518 129.785,483.177 C124.352,462.537 121.709,456.337 115.523,449.724 C110.961,444.847 110.602,444.665 106.793,445.308 C104.608,445.678 99.406,446.041 95.232,446.115 C89.699,446.214 86.575,446.811 83.7,448.319 C75.223,452.764 73.658,459.182 77.133,475.249 C82.598,500.519 82.465,502.937 74.974,514.411 C67.986,525.117 62.398,531.516 57.567,534.347 C52.24,537.469 50.519,537.376 48.706,533.87 C45.216,527.12 44.199,522.463 45.221,517.903 C45.766,515.473 46.023,513.296 45.793,513.065 C45.563,512.835 41.173,513.856 36.038,515.333 C29.239,517.289 25.539,518.991 22.423,521.596 L18.144,525.173 L18.144,536.383 L18.144,547.593 L22.277,551.131 C24.55,553.077 29.837,556.99 34.027,559.826 L41.644,564.984 L49.644,564.486 C54.044,564.212 62.993,562.547 69.531,560.787 C91.291,554.927 99.112,553.798 125.761,552.672 L150.877,551.61 L158.557,554.188 C176.289,560.141 220.685,582.16 227.22,588.244 C229.737,590.587 232.825,592.831 234.083,593.23 C235.341,593.629 239.936,596.384 244.295,599.352 C248.775,602.403 253.331,604.749 254.774,604.749 C256.178,604.749 269.773,611.448 284.985,619.636 C324.666,640.995 326.268,641.776 329.144,641.173 C330.519,640.885 337.756,637.751 345.226,634.208 z M86.557,540.181 C84.859,539.343 81.534,536.685 79.167,534.273 L74.865,529.889 L78.202,527.86 C80.038,526.743 83.795,525.346 86.551,524.755 C93.105,523.35 95.144,521.419 95.144,516.62 C95.144,513.358 95.597,512.566 98.251,511.194 C102.545,508.973 104.878,509.826 113.514,516.774 C121.383,523.104 126.419,525.749 130.602,525.749 C132.741,525.749 133.578,526.752 136.122,532.363 C137.772,536 138.875,539.375 138.573,539.863 C137.644,541.367 127.907,540.846 118.045,538.765 C105.527,536.123 101.453,536.211 95.74,539.249 C90.245,542.171 90.532,542.142 86.557,540.181 z M340.144,515.683 C333.44,511.99 329.347,508.142 323.628,500.155 C318.568,493.087 310.717,485.652 302.685,480.321 C296.643,476.31 280.327,468.302 276.056,467.251 C273.651,466.659 273.346,465.914 271.736,456.719 C267.936,435.008 263.149,419.136 255.158,401.749 C251.62,394.052 249.997,388.98 249.078,382.749 C247.115,369.443 247.34,367.086 251.395,358.451 C253.829,353.269 254.653,350.552 253.851,350.35 C253.187,350.183 249.657,349.331 246.008,348.456 C242.358,347.58 235.833,345.414 231.508,343.643 C224.133,340.621 222.738,339.514 209.086,325.835 C197.722,314.448 193.829,309.843 191.336,304.84 C189.58,301.314 188.144,297.417 188.144,296.179 C188.144,291.041 192.373,281.031 199.004,270.472 C202.885,264.291 206.788,257.212 207.677,254.741 C210.671,246.414 207.872,237.642 199.301,228.495 L194.644,223.525 L192.519,206.887 L190.395,190.249 L192.283,160.249 C194.305,128.107 195.782,116.465 199.64,102.249 C206.277,77.795 216.45,60.415 234.07,43.43 C257.207,21.125 287.771,8.297 332.144,2.265 C355.999,-0.978 405.343,-0.698 434.644,2.847 C450.79,4.8 492.385,16.416 500.842,21.332 C507.091,24.965 521.055,36.785 525.862,42.51 C535.998,54.58 541.244,66.055 543.228,80.496 C543.814,84.76 546.265,97.024 548.674,107.749 C551.083,118.474 554.171,133.324 555.536,140.749 C559.133,160.311 564.146,199.974 564.129,208.728 C564.099,223.887 559.008,237.284 549.137,248.175 C541.992,256.06 541.647,258.342 546.042,268.67 C560.748,303.229 552.82,329.406 523.586,342.816 C516.859,345.902 506.807,348.749 502.642,348.749 C500.467,348.749 500.064,349.096 500.609,350.499 C504.332,360.083 503.541,374.427 498.71,384.936 C491.157,401.367 484.899,425.808 483.521,444.252 C483.152,449.201 482.578,453.987 482.247,454.888 C481.915,455.79 478.044,459.432 473.644,462.983 C461.53,472.758 440.508,493.362 436.524,499.364 C428.327,511.713 417.142,518.601 407.344,517.336 C394.56,515.684 380.804,515.619 366.828,517.145 C347.434,519.262 346.553,519.214 340.144,515.683 z M379.144,494.802 C400.955,493.904 406.522,493.232 410.667,490.996 C411.754,490.409 416.4,486.267 420.991,481.791 C425.582,477.314 438.062,467.127 448.724,459.151 L468.11,444.65 L470.597,436.45 C475.578,420.025 486.144,370.322 486.144,363.311 C486.144,355.358 474.769,355.772 470.577,363.878 C469.69,365.594 468.204,374.055 467.118,383.568 C465.7,396.004 464.448,402.412 462.199,408.749 C460.37,413.905 459.142,419.413 459.079,422.749 C458.76,439.576 456.671,443.723 447.19,446.347 C438.469,448.76 436.1,449.886 434.451,452.403 C432.76,454.983 429.256,455.36 421.273,453.818 C417.495,453.088 416.424,453.298 413.383,455.361 C408.42,458.729 403.484,458.532 399.106,454.79 C395.283,451.522 391.089,450.905 389.089,453.315 C385.447,457.704 377.235,458.94 369.655,456.241 C365.922,454.912 365.322,454.979 360.284,457.285 C353.628,460.332 351.678,460.355 345.937,457.448 C341.477,455.19 341.329,455.181 338.033,456.948 C332.997,459.649 330.281,459.189 322.098,454.25 C313.805,449.246 308.421,447.391 304.815,448.295 C299.272,449.687 292.241,435.59 292.302,423.21 C292.327,418.362 291.239,411.823 288.809,402.21 C286.868,394.532 284.791,385.766 284.192,382.731 C283.594,379.696 282.22,375.759 281.139,373.981 C279.351,371.041 278.728,370.749 274.241,370.749 L269.309,370.749 L268.227,375.798 C266.757,382.653 266.864,387.479 268.682,396.283 C270.17,403.486 271.156,406.149 279.994,426.855 C282.249,432.139 284.757,439.007 285.567,442.117 C286.378,445.228 287.313,448.214 287.646,448.753 C287.979,449.292 294.752,453.384 302.698,457.847 C310.643,462.31 317.144,466.487 317.144,467.128 C317.144,468.88 332.552,483.697 341.644,490.686 C348.798,496.186 350.014,496.778 353.144,496.282 C355.069,495.977 366.769,495.311 379.144,494.802 z M355.224,448.708 C359.687,446.431 361.151,443.637 361.129,437.434 C361.109,431.674 359.281,428.575 354.926,426.917 C348.041,424.297 342.509,427.553 343.636,433.563 C344.244,436.801 350.13,450.749 350.89,450.749 C351.073,450.749 353.024,449.831 355.224,448.708 z M334.157,448.233 C335.114,447.079 335.203,444.512 334.529,437.483 L333.644,428.249 L328.357,426.556 C318.746,423.477 318.834,423.446 318.372,430.122 C317.872,437.337 320.062,443.661 324.292,447.221 C327.659,450.054 332.255,450.525 334.157,448.233 z M382.038,447.185 C386.995,443.014 388.856,432.609 385.233,429.33 C384.182,428.379 380.33,427.088 376.673,426.461 C371.056,425.499 369.881,425.55 369.096,426.786 C367.343,429.544 369.651,440.861 373.117,446.499 C375.536,450.436 377.953,450.622 382.038,447.185 z M405.748,447.52 C409.305,445.899 411.773,440.161 411.989,433.009 C412.236,424.858 411.798,424.465 403.39,425.294 C396.565,425.966 396.327,426.081 395.745,428.993 C394.581,434.812 395.179,437.524 398.857,443.11 C400.9,446.212 402.679,448.749 402.81,448.749 C402.942,448.749 404.264,448.196 405.748,447.52 z M432.079,443.814 C436.182,439.711 437.661,425.732 434.394,421.94 L432.644,419.909 L427.394,421.963 L422.144,424.017 L422.144,431.258 C422.144,441.375 422.918,444.551 425.508,445.058 C429.564,445.853 430.151,445.742 432.079,443.814 z M311.037,435.499 C311.613,433.712 312.376,430.369 312.731,428.07 C313.291,424.447 313.035,423.549 310.806,421.32 C308.725,419.24 307.274,418.749 303.2,418.749 L298.166,418.749 L298.796,423.999 C299.142,426.887 299.55,430.149 299.701,431.249 C299.853,432.349 300.014,433.764 300.06,434.392 C300.141,435.498 306.434,438.593 308.816,438.698 C309.461,438.726 310.46,437.287 311.037,435.499 z M451.177,432.36 C452.791,428.669 453.548,424.521 453.25,420.999 C453.183,420.209 451.58,419.755 448.894,419.765 C442.196,419.789 441.755,420.425 442.587,428.875 C442.985,432.909 443.487,436.496 443.703,436.845 C443.919,437.195 445.285,437.254 446.738,436.976 C448.657,436.609 449.871,435.348 451.177,432.36 z M386.321,402.238 C387.205,397.255 387.168,388.054 386.252,384.76 C385.375,381.61 379.727,377.749 375.996,377.749 C371.528,377.749 369.413,380.685 368.674,387.91 C368.318,391.397 368.394,396.724 368.844,399.749 L369.662,405.249 L376.153,405.836 C385.558,406.686 385.53,406.696 386.321,402.238 z M409.591,403.746 C412.328,401.009 412.926,390.621 410.728,384.002 C408.875,378.425 404.096,373.17 401.709,374.086 C399.359,374.988 396.323,380.59 395.013,386.443 C393.744,392.115 394.79,396.41 399.195,403.613 C401.031,406.615 401.597,406.909 404.445,406.339 C406.2,405.988 408.516,404.821 409.591,403.746 z M362.037,404.112 C364.243,402.566 364.336,402.073 363.677,395.362 C363.293,391.45 362.047,386.08 360.908,383.429 C359.03,379.058 358.596,378.669 356.24,379.247 C350.058,380.765 347.621,385.294 345.614,398.99 C344.975,403.35 345.109,403.807 347.281,404.677 C351.183,406.239 359.452,405.922 362.037,404.112 z M337.308,402.661 C339.266,401.613 339.366,400.899 338.952,390.86 C338.629,383.022 337.996,379.119 336.578,376.212 C333.652,370.216 332.039,370.661 328.396,378.466 C326.655,382.197 324.995,386.149 324.707,387.249 C323.723,391.007 323.917,399.245 325.057,402.132 C326.136,404.866 326.427,404.982 330.71,404.395 C333.193,404.055 336.162,403.275 337.308,402.661 z M426.658,401.74 C431.016,399.047 432.662,394.7 432.556,386.158 C432.488,380.639 431.931,378.092 430.043,374.669 C426.386,368.039 424.694,368.363 420.877,376.423 C418.048,382.396 417.645,384.269 417.658,391.41 C417.669,397.997 418.036,399.973 419.563,401.66 C421.903,404.246 422.591,404.254 426.658,401.74 z M315.995,395.862 C317.621,394.832 320.108,384.819 320.122,379.249 C320.134,374.609 318.418,367.749 317.245,367.749 C316.802,367.749 314.91,368.768 313.042,370.012 C308.408,373.099 306.291,377.914 306.124,385.749 C305.876,397.416 305.618,396.751 310.394,396.734 C312.731,396.726 315.252,396.333 315.995,395.862 z M446.643,394.499 C450.345,391.308 451.479,382.647 449.11,375.65 C448.172,372.878 446.863,370.078 446.203,369.429 C443.048,366.329 439.144,378.304 439.144,391.081 C439.144,396.426 439.283,396.749 441.588,396.749 C442.932,396.749 445.207,395.737 446.643,394.499 z M359.648,368.153 C365.44,368.678 367.758,368.483 370.1,367.272 C371.755,366.416 375.05,365.45 377.422,365.125 C381.099,364.621 382.19,364.918 384.833,367.141 C388.612,370.321 392.912,370.506 396.549,367.645 C399.474,365.344 403.991,365.585 409.286,368.323 C411.74,369.592 412.503,369.49 417.321,367.247 C420.551,365.743 424.463,364.765 427.271,364.759 C430.224,364.753 432.365,364.187 433.187,363.197 C435.214,360.754 435.107,352.402 432.94,343.975 C430.419,334.169 430.295,326.974 432.587,323.476 C434.645,320.335 442.982,314.628 450.621,311.131 L456.08,308.632 L465.23,310.211 C479.12,312.608 488.454,316.833 495.41,323.873 L501.176,329.709 L506.91,327.573 C517.469,323.639 524.85,317.912 530.676,309.134 C535.377,302.052 535.421,302.468 527.865,282.249 C526.22,277.849 521.933,268.174 518.338,260.749 C513.248,250.238 511.715,247.803 511.416,249.749 C510.509,255.639 506.927,267.243 504.595,271.844 C498.18,284.505 487.84,290.57 458.808,298.706 C451.265,300.82 450.685,300.844 443.308,299.346 C432.798,297.212 422.401,291.857 414.601,284.56 C400.773,271.625 393.535,257.793 389.581,236.749 C388.103,228.884 388.451,213.32 390.253,206.749 C391.633,201.712 391.765,199.984 390.839,199.072 C390.182,198.425 375.694,187.812 358.644,175.489 C341.594,163.166 321.163,148.396 313.241,142.666 C275.397,115.294 258.371,101.898 239.191,84.403 L229.738,75.781 L227.534,77.852 C224.589,80.619 219.704,89.991 217.764,96.598 C216.9,99.54 215.059,112.815 213.673,126.098 C209.907,162.186 209.212,168.497 208.034,177.249 C206.636,187.645 207.424,198.859 210.035,205.749 C212.111,211.228 220.309,222.749 222.13,222.749 C222.657,222.749 223.835,220.178 224.749,217.035 C226.093,212.411 226.245,209.69 225.544,202.785 C224.162,189.163 224.624,169.312 226.616,156.819 C228.366,145.839 228.587,145.247 232.258,141.756 L236.078,138.122 L237.148,141.185 C239.883,149.015 241.69,177.526 241.59,211.249 C241.545,226.35 241.181,230.68 239.327,238.134 C236.36,250.065 232.238,258.345 224.588,267.743 C216.43,277.766 210.43,287.058 209.157,291.643 C207.123,298.965 207.669,300.487 214.894,307.624 C220.752,313.412 236.213,324.687 240.596,326.369 C241.458,326.7 244.485,325.047 247.859,322.402 C254.218,317.417 266.813,310.789 275.841,307.677 C282.789,305.282 286.285,305.865 301.062,311.882 C311.609,316.176 314.572,318.439 317.254,324.249 C319.603,329.34 319.524,332.698 316.736,346.249 C315.315,353.155 314.814,357.696 315.39,358.45 C315.894,359.11 318.632,360.954 321.475,362.547 C326.006,365.086 327.395,365.388 332.733,364.988 C338.993,364.519 343.345,365.877 346.058,369.146 C347.195,370.516 347.581,370.509 349.766,369.077 C351.72,367.797 353.684,367.613 359.648,368.153 z M342.836,342.722 C340.186,340.637 340.144,340.421 340.144,328.853 C340.144,302.004 347.853,278.565 362.666,260.381 C366.816,255.286 367.472,254.85 369.452,255.865 C373.591,257.988 378.316,263.259 382.347,270.249 C384.567,274.099 388.138,279.994 390.283,283.349 C394.123,289.355 397.144,300.167 398.985,307.992 C400.827,315.817 402.456,318.996 403.141,321.131 C404.597,325.672 404.046,340.247 402.353,341.94 C400.353,343.94 393.081,340.122 384.644,332.643 C377.51,326.32 370.703,321.749 368.418,321.749 C367.306,321.749 357.577,337.566 356.425,341.249 C355.567,343.992 355.06,344.275 350.508,344.545 C346.648,344.774 344.924,344.364 342.836,342.722 z M303.644,291.616 C300.344,291.259 290.047,290.917 280.762,290.858 L263.88,290.749 L260.762,287.441 C259.047,285.621 255.077,280.78 251.94,276.682 C246.772,269.932 246.128,268.531 245.076,261.754 C243.898,254.158 244.351,245.013 246.316,236.749 C247.998,229.672 253.829,218.191 257.169,215.382 C260.915,212.23 274.668,207.753 290.811,204.43 C302.084,202.11 303.293,202.035 307.255,203.4 C309.607,204.21 316.281,205.537 322.087,206.349 C336.587,208.377 336.681,208.404 340.457,211.719 C344.366,215.151 350.211,227.166 350.886,233.157 C351.325,237.049 350.344,243.465 346.743,260.249 C344.823,269.197 344.269,272.451 343.954,276.617 C343.441,283.427 330.25,289.791 312.144,291.966 C310.769,292.131 306.944,291.974 303.644,291.616 z M300.161,347.214 C302.92,341.515 302.688,337.825 299.317,333.788 C296.792,330.763 295.845,330.355 290.442,329.964 C284.522,329.536 284.323,329.605 281.019,333.23 C279.163,335.266 276.8,338.261 275.768,339.884 L273.892,342.836 L282.146,350.871 L290.399,358.906 L294.289,355.108 C296.428,353.019 299.07,349.467 300.161,347.214 z M465.526,347.089 C466.981,345.35 468.827,342.358 469.628,340.44 C471.069,336.992 471.037,336.886 466.865,331.381 C463.268,326.633 462.159,325.805 459.362,325.779 C454.819,325.738 449.616,328.099 447.654,331.093 C446.319,333.13 446.141,334.955 446.713,340.757 C447.365,347.37 447.728,348.227 451.531,352.142 L455.644,356.375 L459.262,353.312 C461.252,351.628 464.071,348.827 465.526,347.089 z M543.897,224.677 C551.601,209.459 550.52,194.247 537.969,141.249 C535.755,131.899 533.32,119.51 532.558,113.717 C527.624,76.19 512.71,52.44 485.644,39.007 C463.26,27.899 418.433,20.502 373.144,20.445 C343.845,20.407 325.023,23.232 299.964,31.425 C279.927,37.977 245.144,56.29 245.144,60.287 C245.144,62.923 288.191,99.126 314.644,118.736 C360.102,152.435 402.703,181.392 412.703,185.39 C426.543,190.923 449.409,197.649 483.644,206.257 L516.644,214.554 L517.455,211.902 C517.901,210.443 518.009,202.724 517.696,194.749 C517.007,177.234 517.934,170.191 521.268,167.606 C528.06,162.341 532.104,171.352 534.22,196.459 C535.278,209.006 535.223,209.999 533.142,216.255 C531.846,220.147 531.205,223.858 531.574,225.326 C532.199,227.816 537.765,232.021 539.644,231.423 C540.194,231.248 542.108,228.212 543.897,224.677 z" fill="#000000" id="path879"/>
  </g>
</svg>
